<?xml version="1.0" encoding="UTF-8" standalone="no"?>
<svg
   id="Layer_1"
   data-name="Layer 1"
   viewBox="0 0 220261.26 51288.66"
   version="1.1"
   xml:space="preserve"
   width="220261.27"
   height="51288.66"
   xmlns="http://www.w3.org/2000/svg"
   xmlns:svg="http://www.w3.org/2000/svg"
   xmlns:rdf="http://www.w3.org/1999/02/22-rdf-syntax-ns#"
   xmlns:cc="http://creativecommons.org/ns#"
   xmlns:dc="http://purl.org/dc/elements/1.1/"><defs
     id="defs1"><style
       id="style1">.cls-1{fill:#4e4540;}.cls-2{opacity:0.98;}.cls-3{fill:#ed1944;}</style><clipPath
       clipPathUnits="userSpaceOnUse"
       id="clipPath18-1"><path
         d="M 0,923 H 800 V 0 H 0 Z"
         id="path16-5" /></clipPath></defs><title
     id="title1">OpenStack_Logo_Vertical</title><path
     style="font-weight:800;font-size:20.8003px;font-family:Raleway;-inkscape-font-specification:'Raleway Ultra-Bold';fill:#d2990b;stroke-width:7.80473"
     d="m 295.73163,137.08289 v -15.26351 h 6.09797 q 1.02639,0 1.87165,0.45145 0.8654,0.45146 1.46916,1.18238 0.62388,0.73093 0.96601,1.65534 0.36226,0.92442 0.36226,1.87032 0,1.0104 -0.34214,1.93482 -0.322,0.9244 -0.92576,1.65533 -0.58363,0.73093 -1.42889,1.16089 -0.84528,0.42996 -1.87166,0.42996 h -2.89806 v 4.92302 z m 3.30054,-7.99722 h 2.6968 q 0.58363,0 1.00627,-0.53745 0.42263,-0.53744 0.42263,-1.56935 0,-0.53745 -0.14088,-0.9244 -0.12075,-0.38697 -0.34213,-0.64494 -0.22137,-0.25797 -0.50313,-0.36547 -0.28175,-0.12899 -0.56351,-0.12899 h -2.57605 z m 9.17718,7.99722 v -15.26351 h 6.44011 q 1.00626,0 1.85152,0.45145 0.8654,0.45146 1.48928,1.18238 0.62388,0.73093 0.96601,1.65534 0.36226,0.92442 0.36226,1.87032 0,0.70943 -0.16101,1.37587 -0.161,0.64494 -0.46287,1.22538 -0.30189,0.58045 -0.74465,1.0534 -0.42262,0.45146 -0.96601,0.77392 l 3.28043,5.67545 h -3.72319 l -2.87792,-4.92302 h -2.15341 v 4.92302 z m 3.30055,-7.99722 h 3.0188 q 0.58363,0 1.00627,-0.58045 0.42262,-0.60194 0.42262,-1.52635 0,-0.9459 -0.483,-1.50485 -0.48301,-0.55895 -1.04652,-0.55895 h -2.91817 z m 10.38468,7.99722 v -15.26351 h 3.30055 v 15.26351 z m 8.07024,-15.26351 3.38105,10.83494 3.32068,-10.83494 h 3.48168 l -5.43384,15.26351 h -2.75717 l -5.47408,-15.26351 z m 8.99602,15.26351 5.49422,-15.26351 h 2.67667 l 5.47409,15.26351 h -3.50181 l -1.1069,-3.41817 h -4.44769 l -1.08677,3.41817 z m 6.82249,-11.52288 -1.71065,5.67545 h 3.36093 z m 17.73044,-0.64494 h -4.34707 v 12.16782 h -3.30055 v -12.16782 h -4.3672 v -3.09569 h 12.01482 z m 11.67269,9.07212 v 3.0957 h -10.04254 v -15.26351 h 9.86141 v 3.09569 h -6.56086 v 2.96671 h 5.63509 v 2.85922 h -5.63509 v 3.24619 z m 5.91684,-4.66505 q 0,-1.37587 0.46288,-2.73022 0.46288,-1.37587 1.3484,-2.45077 0.88551,-1.07489 2.15341,-1.74133 1.28802,-0.66643 2.91817,-0.66643 1.91191,0 3.32068,0.9244 1.40877,0.92441 2.09303,2.40777 l -2.53578,1.89181 q -0.22139,-0.60194 -0.56351,-0.9889 -0.34214,-0.40846 -0.74464,-0.64493 -0.40251,-0.25798 -0.84527,-0.34398 -0.42263,-0.10748 -0.80501,-0.10748 -0.88551,0 -1.52952,0.40846 -0.64401,0.40846 -1.06665,1.05339 -0.42263,0.64494 -0.64401,1.46186 -0.20125,0.81692 -0.20125,1.65535 0,0.90291 0.2415,1.74132 0.26163,0.83842 0.70439,1.48336 0.46288,0.64494 1.10689,1.03189 0.64401,0.36547 1.4289,0.36547 0.40251,0 0.82514,-0.10749 0.44276,-0.12898 0.84527,-0.36547 0.4025,-0.25797 0.72451,-0.64493 0.322,-0.40846 0.52326,-0.9889 l 2.71692,1.69833 q -0.32201,0.83842 -0.9459,1.50486 -0.60376,0.66643 -1.38865,1.11789 -0.78488,0.45146 -1.67039,0.68793 -0.8654,0.23647 -1.71066,0.23647 -1.48927,0 -2.73705,-0.66643 -1.22764,-0.68794 -2.13328,-1.80582 -0.88551,-1.1179 -1.38865,-2.53676 -0.50313,-1.41886 -0.50313,-2.88072 z m 14.16824,7.76075 v -15.26351 h 3.30055 v 12.16781 h 6.92312 v 3.0957 z m 17.40843,0.12898 q -1.52952,0 -2.77729,-0.66643 -1.24778,-0.66643 -2.15342,-1.74133 -0.88551,-1.0964 -1.38865,-2.49375 -0.483,-1.39737 -0.483,-2.88073 0,-1.50485 0.50313,-2.90222 0.52326,-1.39736 1.4289,-2.45075 0.92576,-1.07489 2.17354,-1.69834 1.26789,-0.64493 2.75717,-0.64493 1.52952,0 2.77729,0.66643 1.24777,0.66644 2.13328,1.76283 0.90565,1.09639 1.38865,2.49376 0.48301,1.39736 0.48301,2.83772 0,1.50485 -0.52326,2.90222 -0.50313,1.39736 -1.40877,2.47225 -0.90564,1.05341 -2.17353,1.69833 -1.24778,0.64494 -2.73705,0.64494 z m -3.44143,-7.73924 q 0,0.88142 0.22138,1.71983 0.2415,0.81692 0.66413,1.46186 0.44276,0.64494 1.08677,1.0319 0.66414,0.38696 1.5094,0.38696 0.86539,0 1.5094,-0.40846 0.64401,-0.40846 1.06664,-1.05339 0.44276,-0.66644 0.64402,-1.48336 0.22137,-0.83842 0.22137,-1.69834 0,-0.88141 -0.2415,-1.69833 -0.22138,-0.83842 -0.66414,-1.46186 -0.44276,-0.64494 -1.08677,-1.0104 -0.64401,-0.38696 -1.46914,-0.38696 -0.86539,0 -1.5094,0.40846 -0.64401,0.38696 -1.08677,1.0319 -0.42264,0.64493 -0.64401,1.48335 -0.22138,0.81692 -0.22138,1.67684 z m 18.33416,4.60055 q 0.84527,0 1.4289,-0.36547 0.58364,-0.38695 0.9459,-1.01039 0.36225,-0.62345 0.50312,-1.41887 0.16101,-0.81692 0.16101,-1.65533 v -7.80374 h 3.30056 v 7.80374 q 0,1.59084 -0.38239,2.96671 -0.36226,1.37586 -1.14714,2.40776 -0.76476,1.0319 -1.97229,1.63385 -1.18738,0.58043 -2.83767,0.58043 -1.71064,0 -2.91817,-0.62343 -1.20752,-0.62344 -1.97228,-1.65534 -0.74463,-1.0534 -1.10689,-2.42926 -0.34213,-1.37587 -0.34213,-2.88072 v -7.80374 h 3.30055 v 7.80374 q 0,0.88141 0.161,1.67683 0.16101,0.79542 0.52327,1.41886 0.36225,0.62344 0.92576,0.9889 0.58363,0.36547 1.42889,0.36547 z m 8.8753,3.00971 v -15.26351 h 5.33322 q 1.77102,0 3.09929,0.60194 1.32827,0.60194 2.21378,1.63384 0.90565,1.03189 1.3484,2.42926 0.46289,1.37586 0.46289,2.94521 0,1.74134 -0.50314,3.1602 -0.50313,1.39736 -1.44902,2.40776 -0.92576,0.98891 -2.25404,1.54785 -1.30814,0.53745 -2.91816,0.53745 z m 9.09665,-7.65326 q 0,-1.0104 -0.26163,-1.82732 -0.24151,-0.83841 -0.72451,-1.44036 -0.48301,-0.60194 -1.1874,-0.9244 -0.70438,-0.32248 -1.58989,-0.32248 h -2.03267 v 9.07212 h 2.03267 q 0.90563,0 1.61002,-0.34397 0.70438,-0.34396 1.16727,-0.9459 0.483,-0.62345 0.72451,-1.44036 0.26163,-0.83842 0.26163,-1.82733 z"
     id="text1"
     aria-label="PRIVATE CLOUD" /><g
     id="g1"
     transform="matrix(0.20554373,0,0,0.20554373,7.2643058,44.315186)"
     style="stroke-width:4.86515"><g
       id="g209"
       transform="matrix(0.47106188,0,0,0.47106188,1057.1736,1.44295)"
       style="stroke-width:4.86515"><g
         id="g10"
         transform="matrix(1.3333333,0,0,-1.3333333,-111.40162,1203.7017)"
         style="display:inline;fill:#ffffff;stroke-width:4.86515"><g
           id="g12"
           style="fill:#ffffff;stroke-width:4.86515"><g
             id="g14"
             clip-path="url(#clipPath18-1)"
             style="fill:#ffffff;stroke-width:4.86515"><g
               id="g20"
               transform="translate(401.3086,817.4033)"
               style="fill:#ffffff;stroke-width:4.86515" /><g
               id="g24"
               transform="translate(444.0488,803.1709)"
               style="fill:#ffffff;stroke-width:4.86515"><path
                 d="m 0,0 178.125,-302.324 c 24.212,70.288 31.937,147.402 31.98,221.152 C 138.492,-60.784 66.433,-34.731 0,0 m -85.673,-1.056 c -66.514,-36.225 -136.483,-63.059 -210.71,-81.283 -2.446,-77.326 5.091,-157.019 31.752,-229.851 z"
                 style="fill:#ffffff;fill-opacity:1;fill-rule:evenodd;stroke:none;stroke-width:4.86515"
                 id="path26" /></g><g
               id="g28"
               transform="translate(295.9561,44.2627)"
               style="fill:#ffffff;stroke-width:4.86515" /><g
               id="g32"
               transform="translate(687.332,127.4043)"
               style="fill:#ffffff;stroke-width:4.86515" /></g></g></g><g
         id="layer1-2"
         style="display:inline;stroke-width:4.86515"><path
           transform="matrix(1.3333333,0,0,-1.3333333,423.6765,113.83066)"
           d="m 0,0 -225.272,-391.672 c -44.307,83.881 -64.154,189.396 -56.956,318.836 C -188.15,-52.131 -94.073,-16.404 0,44.766 77.163,-5.009 172.704,-43.294 282.232,-72.836 c 2.602,-135.553 -19.206,-234.488 -56.937,-309.538 z m -135.98,-382.937 c 6.812,0 12.331,-5.519 12.331,-12.331 0,-6.807 -5.519,-12.327 -12.331,-12.327 -6.807,0 -12.327,5.52 -12.327,12.327 0,6.812 5.52,12.331 12.327,12.331 m 283.121,-29.406 c 6.806,0 12.327,-5.518 12.327,-12.326 0,-6.811 -5.521,-12.33 -12.327,-12.33 -6.812,0 -12.331,5.519 -12.331,12.33 0,6.808 5.519,12.326 12.331,12.326 m -55.9,107.547 c 6.811,0 12.331,-5.519 12.331,-12.332 0,-6.806 -5.52,-12.326 -12.331,-12.326 -6.807,0 -12.327,5.52 -12.327,12.326 0,6.813 5.52,12.332 12.327,12.332 m -73.025,111.542 c 6.806,0 12.327,-5.52 12.327,-12.331 0,-6.811 -5.521,-12.332 -12.327,-12.332 -6.812,0 -12.331,5.521 -12.331,12.332 0,6.811 5.519,12.331 12.331,12.331 m -91.541,-83.473 c 6.807,0 12.327,-5.519 12.327,-12.325 0,-6.807 -5.52,-12.327 -12.327,-12.327 -6.812,0 -12.331,5.52 -12.331,12.327 0,6.806 5.519,12.325 12.331,12.325 M 7.971,-515.146 v -71.019 c 73.819,38.328 141.784,85.424 191.623,159.711 L 0,-83.455 -201.576,-431.103 c 46.694,-68.694 112.597,-120.392 195.889,-156.706 v 72.663 h -11.472 -13.564 -0.094 v 52.35 h -35.68 -13.657 v 13.658 47.041 h -32.722 c -2.945,-9.975 -12.173,-17.258 -23.104,-17.258 -13.306,0 -24.087,10.786 -24.087,24.087 0,13.305 10.781,24.086 24.087,24.086 10.931,0 20.159,-7.279 23.104,-17.258 h 32.722 v 76.283 c -9.979,2.945 -17.259,12.173 -17.259,23.105 0,13.305 10.783,24.086 24.088,24.086 13.305,0 24.087,-10.781 24.087,-24.086 0,-10.932 -7.28,-20.16 -17.259,-23.105 v -136.981 h 35.68 13.658 v -13.658 -38.692 H 19.73 v 26.554 13.659 35.654 H -17.443 -31.1 v 13.656 81.373 13.658 h 13.657 28.826 v 88.245 c -9.975,2.944 -17.254,12.171 -17.254,23.104 0,13.301 10.781,24.087 24.087,24.087 13.301,0 24.087,-10.786 24.087,-24.087 0,-10.933 -7.284,-20.16 -17.263,-23.104 v -88.245 -13.658 -0.574 H 11.383 v 0.574 h -28.826 v -81.373 H 19.73 v 22.195 13.657 h 13.659 51.023 v 35.883 c -9.979,2.943 -17.258,12.171 -17.258,23.102 0,13.307 10.782,24.093 24.087,24.093 13.306,0 24.087,-10.786 24.087,-24.093 0,-10.931 -7.279,-20.159 -17.258,-23.102 v -35.883 -13.562 -0.095 H 33.389 v -22.195 -13.656 -35.654 h 34.52 v 29.774 13.661 h 13.657 42.471 c 2.94,9.976 12.171,17.258 23.104,17.258 13.3,0 24.087,-10.785 24.087,-24.087 0,-13.305 -10.787,-24.091 -24.087,-24.091 -10.933,0 -20.16,7.282 -23.104,17.259 H 81.566 v -29.774 -13.659 H 67.909 33.389 v -26.554 -13.658 H 19.73 Z m -297.525,475.604 c 97.622,21.481 187.099,58.35 270.979,112.884 L -0.068,85.373 18.478,73.407 c 82.008,-52.9 178.824,-88.03 272.63,-113.332 l 24.714,-6.661 0.49,-25.594 c 2.089,-108.927 -10.323,-223.913 -59.179,-322.749 -37.375,-75.626 -91.468,-132.766 -161.27,-179.304 -25.778,-17.186 -52.808,-32.385 -80.42,-46.415 l -14.133,-7.184 -14.602,6.187 c -69.398,29.398 -132.152,70.687 -182.296,127.369 -103.598,117.107 -129.101,271.767 -120.676,423.337 l 1.438,25.833 z"
           style="fill:#d2990b;fill-opacity:1;fill-rule:evenodd;stroke:none;stroke-width:4.86515"
           id="path22" /></g></g><g
       id="layer7"
       style="display:inline;stroke-width:4.86515"><path
         transform="translate(1063.6676,-521.10168)"
         style="display:inline;fill:#d2990b;fill-opacity:1;stroke:#d2990b;stroke-width:3.64887;stroke-opacity:1"
         d="m 521.1124,857.0158 c -25.25925,-2.24146 -47.98425,-12.25165 -64.40813,-28.37129 -12.2976,-12.06976 -21.27735,-28.50574 -25.6815,-47.00555 -3.5949,-15.10095 -3.66202,-16.90312 -3.67664,-98.72478 l -0.0137,-77.0625 h 26.5824 26.5824 l 0.2826,75.1875 c 0.28087,74.72414 0.29302,75.23364 1.96875,82.67503 5.1588,22.90799 18.38797,38.6802 37.20885,44.36125 3.30848,0.99865 6.98243,1.35832 13.875,1.35832 6.89257,0 10.56652,-0.35967 13.875,-1.35832 17.41995,-5.25818 30.93765,-20.44888 35.90332,-40.34664 2.53073,-10.14089 2.69198,-15.41769 2.70683,-88.56464 l 0.0149,-73.3125 h 27 27 v 74.54554 c 0,46.70497 -0.29452,77.44626 -0.78863,82.3125 -2.81009,27.67684 -12.2157,49.58199 -28.11727,65.48355 -16.78395,16.78399 -39.01125,26.50729 -65.9691,28.8581 -10.08952,0.87985 -14.09505,0.87399 -24.345,-0.0356 z m 258.39892,0.0585 c -15.90645,-1.80653 -32.18909,-6.40852 -45.10687,-12.74862 -32.12708,-15.76811 -55.59862,-44.37375 -64.287,-78.34902 -3.48307,-13.62018 -3.91192,-17.72783 -3.87615,-37.125 0.0315,-17.00613 0.1836,-19.07907 2.04428,-27.82616 3.19492,-15.01957 8.32432,-28.28644 15.33592,-39.66512 25.92623,-42.07398 72.43643,-64.96388 123.7836,-60.91979 28.47615,2.24278 51.26273,10.8812 73.20435,27.75186 5.36257,4.12321 18.47295,16.56811 18.47295,17.53524 0,0.79007 -32.84955,38.12397 -33.54472,38.12397 -0.24683,0 -4.02218,-3.47847 -8.38958,-7.72994 -11.5035,-11.1982 -20.72347,-16.98208 -33.4407,-20.97806 -9.4998,-2.98501 -16.38315,-3.79654 -28.31512,-3.33827 -21.0174,0.8072 -36.61605,7.42707 -51.45128,21.83526 -10.83637,10.52448 -16.36815,19.83823 -20.10007,33.8424 -1.7922,6.72531 -2.00393,8.87773 -2.06468,20.99361 -0.0712,14.2566 0.42195,17.94761 3.81008,28.5 3.69907,11.52096 9.77542,21.09896 18.93982,29.85457 14.35718,13.71682 28.37948,19.75409 47.68125,20.52913 15.36023,0.61677 28.30913,-2.05842 41.0871,-8.48844 8.40188,-4.22793 13.75673,-8.17739 22.17068,-16.35211 l 7.75777,-7.53718 16.43408,16.87202 c 9.0387,9.27961 16.78717,17.47345 17.21895,18.20855 0.65325,1.11231 -0.008,2.16479 -3.94185,6.27332 -19.1436,19.99425 -44.08508,34.00122 -70.0176,39.32142 -8.57948,1.76013 -33.2811,2.56617 -43.40521,1.41636 z M 923.8324,730.35168 v -124.5 h 85.5 85.5 v 23.625 23.625 h -57.6 c -43.8,0 -57.81563,0.21563 -58.5,0.9 -0.66578,0.66581 -0.9,7.75 -0.9,27.225 0,19.475 0.23423,26.55919 0.9,27.225 0.68355,0.68352 14.03332,0.9 55.5,0.9 h 54.6 v 23.625 23.625 h -54.6 c -41.46668,0 -54.81645,0.21648 -55.5,0.9 -0.6813,0.68134 -0.9,12.61666 -0.9,49.125 v 48.225 h -27 -27 z"
         id="path645" /></g><g
       id="layer6"
       style="display:inline;stroke-width:4.86515"><path
         transform="translate(1063.6676,-521.10168)"
         style="fill:#f9f9f9;fill-opacity:1;stroke:#f9f9f9;stroke-width:3.64887;stroke-opacity:1"
         d="m -390.5426,854.79911 c -34.70141,-2.02413 -61.63632,-13.84786 -85.18045,-37.39198 -22.67806,-22.67807 -33.4078,-46.49243 -36.06372,-80.04245 -2.74978,-34.73572 6.93634,-67.20454 27.64443,-92.66686 5.2936,-6.50892 16.38936,-17.09376 23.49746,-22.41549 16.08966,-12.04607 34.1614,-19.79989 55.10228,-23.64206 9.39219,-1.72325 38.02654,-1.97707 46.875,-0.41551 22.56463,3.98217 41.32145,11.8938 58.2312,24.56197 7.82857,5.86482 21.2688,18.5976 21.2688,20.1492 0,0.70219 -26.42798,31.44774 -31.85257,37.05644 -0.81938,0.84714 -2.085,-0.095 -7.6274,-5.67745 -14.0162,-14.11767 -28.78045,-21.89039 -46.77003,-24.62237 -35.78352,-5.43423 -69.59229,11.50739 -83.64019,41.91222 -5.50696,11.91911 -7.95452,28.19699 -6.49001,43.16292 2.01698,20.61171 8.66178,35.52981 21.51266,48.2976 18.25238,18.13435 41.75219,24.76134 69.45011,19.58506 16.42272,-3.06914 31.18775,-11.16927 43.77698,-24.01615 l 6.16691,-6.29311 13.48721,13.69279 c 15.92393,16.16662 20.48633,21.08544 20.48633,22.08684 0,1.25696 -16.5627,16.97791 -22.51935,21.37485 -26.35844,19.45676 -53.38427,27.28509 -87.35565,25.30354 z m -606.77495,-1.62544 c -0.19808,-0.52084 -0.27351,-56.80324 -0.1676,-125.07199 l 0.19255,-124.125 26.1613,-0.19733 c 18.68344,-0.14093 26.45464,0.0461 27.1875,0.65433 0.85006,0.70549 1.0262,9.70469 1.0262,52.42959 0,46.34046 0.12046,51.62416 1.18634,52.03317 1.55003,0.5948 97.32729,0.5948 98.87732,0 1.06601,-0.40907 1.18634,-5.7326 1.18634,-52.48572 v -52.03046 l 1.6875,-0.41115 c 0.92813,-0.22613 13.1625,-0.31693 27.1875,-0.20178 l 25.5,0.20935 v 124.875 124.875 h -27 -27 l -0.375,-49.125 -0.375,-49.125 h -50.25 -50.25 l -0.375,49.125 -0.375,49.125 -26.8324,0.19699 c -21.06433,0.15465 -26.90981,-0.007 -27.19255,-0.75 z m 227.3827,0.35234 c -0.47681,-0.77147 106.64927,-248.6335 107.76675,-249.3444 0.48153,-0.30633 12.20162,-0.56213 26.04465,-0.56845 19.03269,-0.009 25.45119,0.21709 26.3259,0.92602 1.4834,1.20223 108.03478,247.95522 107.46713,248.87369 -0.70097,1.13419 -56.24997,0.8923 -57.11092,-0.24869 -0.38907,-0.51563 -5.54944,-12.24375 -11.46749,-26.0625 -5.91805,-13.81875 -11.2621,-25.71563 -11.87567,-26.4375 -1.04272,-1.22678 -4.53066,-1.3125 -53.4075,-1.3125 -40.92012,0 -52.46051,0.20387 -53.0671,0.9375 -0.42635,0.51562 -5.72704,12.41179 -11.77931,26.43592 -6.05227,14.02414 -11.35485,25.92102 -11.7835,26.4375 -0.5987,0.72141 -7.26711,0.93908 -28.76826,0.93908 -15.3939,0 -28.14901,-0.25905 -28.34468,-0.57567 z m 165.09682,-103.29933 c 0.11252,-0.825 -6.5299,-17.19375 -14.76093,-36.375 -11.60063,-27.03366 -15.26093,-34.875 -16.27942,-34.875 -1.00526,0 -3.56904,5.19752 -10.91358,22.125 -5.2798,12.16875 -12.18504,28.08388 -15.34495,35.36697 -3.31212,7.6339 -5.54966,13.75182 -5.28333,14.44584 0.41546,1.08268 3.5783,1.18415 31.4198,1.00803 30.31491,-0.19177 30.96209,-0.227 31.16241,-1.69584 z m 349.27053,102.94711 c -0.19815,-0.52091 -0.27352,-56.80336 -0.16762,-125.07211 l 0.19252,-124.125 h 26.625 26.625 l 0.19275,50.35003 c 0.16193,42.29412 0.36233,50.49075 1.25258,51.22958 0.86767,0.72012 9.56062,-8.35559 47.95582,-50.06735 25.7928,-28.0208 47.4474,-51.15849 48.12128,-51.41708 2.0652,-0.79249 64.716295,-0.54748 65.21227,0.25502 0.246525,0.39887 -21.50235,25.11079 -48.33075,54.91537 -26.8284,29.80457 -48.77895,54.59316 -48.77895,55.08573 0,0.49257 22.07715,31.88503 49.060275,69.761 26.983125,37.87598 48.90075,69.12355 48.70575,69.43905 -0.470175,0.76068 -61.122825,0.721 -62.322295,-0.0408 -0.51225,-0.32529 -17.2185,-22.48926 -37.125,-49.25325 -19.90658,-26.76401 -36.57668,-48.78282 -37.04468,-48.93072 -0.468,-0.14789 -5.50612,4.89312 -11.19592,11.20225 -5.68973,6.30913 -11.38185,12.5865 -12.64905,13.94972 l -2.30408,2.47858 -0.375,35.39642 -0.375,35.39642 -26.45737,0.19711 c -20.76413,0.15471 -26.53485,-0.007 -26.81753,-0.75 z"
         id="path641" /></g></g><metadata
     id="metadata1"><rdf:RDF><cc:Work
         rdf:about=""><dc:title>OpenStack_Logo_Vertical</dc:title></cc:Work></rdf:RDF></metadata></svg>
