<svg width="1126" height="229" viewBox="0 0 1126 229" fill="none" xmlns="http://www.w3.org/2000/svg">
<g clip-path="url(#clip0_1_6)">
<path fill-rule="evenodd" clip-rule="evenodd" d="M652.582 32.8205L709.417 129.284C717.142 106.857 719.607 82.252 719.621 58.7203C696.771 52.215 673.779 43.9022 652.582 32.8205ZM625.246 33.1574C604.023 44.7159 581.698 53.2779 558.014 59.0927C557.233 83.7653 559.638 109.193 568.145 132.432L625.246 33.1574Z" fill="#F9F9F9" stroke="#F9F9F9" stroke-width="0.319073"/>
<path fill-rule="evenodd" clip-rule="evenodd" d="M638.944 28.2793L567.066 153.251C552.929 126.487 546.596 92.8202 548.893 51.5193C578.911 44.9129 608.928 33.5134 638.944 13.9957C663.565 29.8776 694.05 42.0933 728.997 51.5193C729.827 94.7707 722.869 126.338 710.83 150.285L638.944 28.2793ZM595.557 150.464C597.73 150.464 599.491 152.225 599.491 154.399C599.491 156.571 597.73 158.332 595.557 158.332C593.385 158.332 591.624 156.571 591.624 154.399C591.624 152.225 593.385 150.464 595.557 150.464ZM685.893 159.847C688.065 159.847 689.826 161.608 689.826 163.78C689.826 165.953 688.065 167.714 685.893 167.714C683.72 167.714 681.959 165.953 681.959 163.78C681.959 161.608 683.72 159.847 685.893 159.847ZM668.057 125.532C670.23 125.532 671.992 127.293 671.992 129.466C671.992 131.638 670.23 133.399 668.057 133.399C665.885 133.399 664.124 131.638 664.124 129.466C664.124 127.293 665.885 125.532 668.057 125.532ZM644.757 89.9415C646.928 89.9415 648.69 91.7028 648.69 93.876C648.69 96.0492 646.928 97.8108 644.757 97.8108C642.583 97.8108 640.822 96.0492 640.822 93.876C640.822 91.7028 642.583 89.9415 644.757 89.9415ZM615.548 116.576C617.72 116.576 619.482 118.336 619.482 120.508C619.482 122.68 617.72 124.441 615.548 124.441C613.375 124.441 611.614 122.68 611.614 120.508C611.614 118.336 613.375 116.576 615.548 116.576ZM641.488 192.649V215.309C665.041 203.079 686.727 188.052 702.63 164.349L638.944 54.9076L574.627 165.833C589.526 187.751 610.554 204.247 637.13 215.833V192.649H633.469H629.142H629.112V175.945H617.727H613.369V171.587V156.578H602.929C601.989 159.76 599.045 162.084 595.557 162.084C591.311 162.084 587.871 158.643 587.871 154.399C587.871 150.154 591.311 146.714 595.557 146.714C599.045 146.714 601.989 149.036 602.929 152.22H613.369V127.88C610.185 126.941 607.863 123.996 607.863 120.508C607.863 116.263 611.303 112.823 615.548 112.823C619.794 112.823 623.234 116.263 623.234 120.508C623.234 123.996 620.911 126.941 617.727 127.88V171.587H629.112H633.469V175.945V188.291H645.24V179.818V175.46V164.084H633.379H629.021V159.726V133.762V129.404H633.379H642.576V101.248C639.394 100.309 637.071 97.3644 637.071 93.876C637.071 89.632 640.511 86.1905 644.757 86.1905C649.001 86.1905 652.442 89.632 652.442 93.876C652.442 97.3644 650.118 100.309 646.934 101.248V129.404V133.762V133.946H642.576V133.762H633.379V159.726H645.24V152.645V148.287H649.598H665.878V136.838C662.694 135.899 660.372 132.954 660.372 129.466C660.372 125.22 663.812 121.779 668.057 121.779C672.303 121.779 675.743 125.22 675.743 129.466C675.743 132.954 673.42 135.899 670.236 136.838V148.287V152.614V152.645H649.598V159.726V164.084V175.46H660.612V165.96V161.601H664.97H678.521C679.459 158.418 682.405 156.094 685.893 156.094C690.137 156.094 693.579 159.536 693.579 163.78C693.579 168.025 690.137 171.467 685.893 171.467C682.405 171.467 679.461 169.143 678.521 165.96H664.97V175.46V179.818H660.612H649.598V188.291V192.649H645.24H641.488ZM546.556 40.8961C577.704 34.0421 606.254 22.2782 633.018 4.87785L638.923 1.03908L644.84 4.85712C671.007 21.7361 701.898 32.9451 731.829 41.0183L739.715 43.1437L739.871 51.31C740.538 86.0657 736.577 122.755 720.989 154.291C709.063 178.421 691.804 196.653 669.532 211.502C661.307 216.985 652.682 221.835 643.872 226.312L639.362 228.604L634.703 226.63C612.56 217.25 592.537 204.075 576.538 185.99C543.482 148.624 535.345 99.276 538.033 50.9141L538.492 42.6714L546.556 40.8961Z" fill="#D2990B"/>
<path d="M805.587 170.954C792.755 169.816 781.21 164.73 772.867 156.541C766.619 150.41 762.058 142.06 759.82 132.662C757.994 124.991 757.96 124.075 757.952 82.5087L757.945 43.36H771.45H784.954L785.097 81.5562C785.24 119.517 785.246 119.776 786.098 123.556C788.718 135.194 795.439 143.206 805 146.092C806.681 146.599 808.547 146.782 812.049 146.782C815.55 146.782 817.417 146.599 819.097 146.092C827.947 143.421 834.814 135.704 837.337 125.596C838.622 120.444 838.704 117.763 838.712 80.6036L838.719 43.36H852.436H866.152V81.23C866.152 104.957 866.002 120.574 865.751 123.046C864.324 137.106 859.546 148.234 851.467 156.312C842.941 164.839 831.649 169.778 817.954 170.972C812.829 171.419 810.794 171.416 805.587 170.954L805.587 170.954ZM936.857 170.984C928.776 170.066 920.504 167.728 913.942 164.508C897.621 156.497 885.697 141.965 881.283 124.705C879.514 117.786 879.296 115.699 879.314 105.845C879.33 97.2062 879.407 96.1531 880.353 91.7094C881.976 84.0793 884.581 77.3396 888.143 71.5591C901.314 50.185 924.942 38.5567 951.027 40.6111C965.493 41.7505 977.069 46.1389 988.216 54.7094C990.94 56.804 997.6 63.1262 997.6 63.6175C997.6 64.0189 980.912 82.9849 980.559 82.9849C980.434 82.9849 978.516 81.2178 976.297 79.058C970.453 73.3692 965.769 70.4309 959.309 68.4009C954.483 66.8845 950.986 66.4723 944.924 66.7051C934.247 67.1151 926.323 70.4781 918.786 77.7976C913.281 83.1442 910.471 87.8757 908.575 94.9899C907.665 98.4065 907.557 99.5 907.526 105.655C907.49 112.897 907.741 114.773 909.462 120.133C911.341 125.986 914.428 130.852 919.084 135.3C926.377 142.268 933.501 145.335 943.306 145.729C951.109 146.042 957.688 144.683 964.179 141.417C968.447 139.269 971.168 137.262 975.442 133.11L979.383 129.281L987.732 137.852C992.323 142.566 996.26 146.728 996.479 147.102C996.811 147.667 996.475 148.202 994.477 150.289C984.751 160.446 972.081 167.562 958.907 170.265C954.548 171.159 942 171.568 936.857 170.984ZM1010.17 106.607V43.36H1053.61H1097.04V55.3618V67.3636H1067.78C1045.53 67.3636 1038.41 67.4731 1038.06 67.8208C1037.72 68.159 1037.61 71.7579 1037.61 81.6514C1037.61 91.5449 1037.72 95.1438 1038.06 95.482C1038.41 95.8293 1045.19 95.9392 1066.26 95.9392H1094V107.941V119.943H1066.26C1045.19 119.943 1038.41 120.053 1038.06 120.4C1037.72 120.746 1037.61 126.809 1037.61 145.356V169.855H1023.89H1010.17V106.607Z" fill="#D2990B" stroke="#D2990B" stroke-width="0.381009"/>
<path d="M342.455 169.828C324.827 168.8 311.143 162.793 299.183 150.833C287.662 139.312 282.211 127.214 280.862 110.17C279.465 92.524 284.386 76.0295 294.906 63.0943C297.595 59.7877 303.232 54.4105 306.843 51.707C315.016 45.5874 324.197 41.6484 334.835 39.6965C339.607 38.8211 354.153 38.6921 358.648 39.4854C370.111 41.5084 379.64 45.5276 388.23 51.9632C392.207 54.9426 399.035 61.411 399.035 62.1992C399.035 62.556 385.609 78.1751 382.854 81.0244C382.437 81.4547 381.795 80.9761 378.979 78.1402C371.859 70.9682 364.358 67.0196 355.219 65.6317C337.041 62.871 319.866 71.4776 312.729 86.9236C309.931 92.9787 308.688 101.248 309.432 108.851C310.457 119.322 313.832 126.9 320.361 133.387C329.633 142.599 341.571 145.966 355.642 143.336C363.985 141.777 371.486 137.662 377.881 131.136L381.014 127.939L387.866 134.895C395.955 143.108 398.273 145.606 398.273 146.115C398.273 146.754 389.859 154.74 386.833 156.974C373.443 166.858 359.713 170.835 342.455 169.828ZM34.2066 169.002C34.106 168.738 34.0677 140.146 34.1215 105.464L34.2193 42.4075L47.5096 42.3073C57.001 42.2357 60.9488 42.3307 61.3211 42.6396C61.753 42.998 61.8424 47.5698 61.8424 69.2745C61.8424 92.816 61.9036 95.5002 62.4451 95.708C63.2325 96.0101 111.889 96.0101 112.676 95.708C113.217 95.5001 113.279 92.7957 113.279 69.0446V42.6125L114.136 42.4037C114.607 42.2888 120.823 42.2426 127.947 42.3011L140.902 42.4075V105.845V169.283H127.185H113.469L113.279 144.327L113.088 119.371H87.5605H62.0329L61.8424 144.327L61.6519 169.283L48.0208 169.383C37.3198 169.462 34.3503 169.38 34.2066 169.002ZM149.72 169.181C149.477 168.79 203.899 42.8727 204.466 42.5116C204.711 42.356 210.665 42.226 217.697 42.2228C227.366 42.2183 230.627 42.3331 231.071 42.6933C231.825 43.304 285.954 168.657 285.666 169.124C285.31 169.7 257.09 169.577 256.653 168.998C256.455 168.736 253.834 162.778 250.827 155.758C247.821 148.738 245.106 142.694 244.794 142.327C244.265 141.704 242.493 141.66 217.663 141.66C196.875 141.66 191.012 141.764 190.704 142.137C190.487 142.398 187.795 148.442 184.72 155.566C181.645 162.691 178.952 168.734 178.734 168.997C178.43 169.363 175.042 169.474 164.119 169.474C156.299 169.474 149.819 169.342 149.72 169.181ZM233.591 116.704C233.648 116.285 230.274 107.97 226.092 98.2253C220.199 84.4919 218.339 80.5084 217.822 80.5084C217.311 80.5084 216.009 83.1488 212.278 91.7481C209.596 97.93 206.088 106.015 204.482 109.715C202.8 113.593 201.663 116.701 201.798 117.054C202.009 117.604 203.616 117.655 217.76 117.566C233.16 117.468 233.489 117.45 233.591 116.704ZM411.024 169.003C410.924 168.738 410.885 140.146 410.939 105.464L411.037 42.4075H424.563H438.089L438.187 67.9859C438.269 89.4718 438.371 93.6358 438.823 94.0111C439.264 94.377 443.68 89.7664 463.185 68.5763C476.288 54.3414 487.289 42.5872 487.631 42.4558C488.68 42.0532 520.508 42.1777 520.76 42.5854C520.885 42.788 509.836 55.342 496.207 70.4831C482.578 85.6241 471.427 98.217 471.427 98.4673C471.427 98.7175 482.642 114.665 496.35 133.907C510.058 153.148 521.192 169.022 521.093 169.183C520.854 169.569 490.042 169.549 489.433 169.162C489.172 168.997 480.685 157.737 470.573 144.141C460.46 130.544 451.991 119.358 451.754 119.283C451.516 119.208 448.956 121.769 446.066 124.974C443.176 128.179 440.284 131.368 439.64 132.061L438.47 133.32L438.279 151.302L438.089 169.283L424.648 169.384C414.1 169.462 411.168 169.38 411.024 169.003Z" fill="#F9F9F9" stroke="#F9F9F9" stroke-width="0.381009"/>
<path d="M225.088 193.146V204.066H213.286V193.146H206.104V222H213.286V210.492H225.088V222H232.27V193.146H225.088ZM258.099 222H266.163L254.739 193.146H246.675L235.251 222H243.315L244.995 217.8H256.419L258.099 222ZM247.221 212.172L250.707 203.31L254.193 212.172H247.221ZM283.551 222.504C288.045 222.504 292.161 220.572 295.017 217.506L289.809 212.886C288.255 214.776 286.029 215.994 283.551 215.994C279.141 215.994 275.403 212.13 275.403 207.552C275.403 203.016 279.141 199.152 283.551 199.152C285.987 199.152 288.255 200.37 289.767 202.26L295.017 197.598C292.161 194.574 288.045 192.642 283.551 192.642C275.151 192.642 268.053 199.446 268.053 207.552C268.053 215.658 275.151 222.504 283.551 222.504ZM298.678 222H305.86V214.146L309.178 210.576L317.284 222H325.936L314.134 205.41L325.096 193.146H316.57L305.86 205.452V193.146H298.678V222ZM341.725 222.504C349.621 222.504 355.123 217.086 355.123 209.358V193.146H347.983V209.022C347.983 213.096 345.379 215.994 341.725 215.994C338.113 215.994 335.509 213.096 335.509 209.022V193.146H328.327V209.358C328.327 217.086 333.871 222.504 341.725 222.504ZM374.729 222.504C379.223 222.504 383.339 220.572 386.195 217.506L380.987 212.886C379.433 214.776 377.207 215.994 374.729 215.994C370.319 215.994 366.581 212.13 366.581 207.552C366.581 203.016 370.319 199.152 374.729 199.152C377.165 199.152 379.433 200.37 380.945 202.26L386.195 197.598C383.339 194.574 379.223 192.642 374.729 192.642C366.329 192.642 359.231 199.446 359.231 207.552C359.231 215.658 366.329 222.504 374.729 222.504ZM412.494 199.572V193.146H389.772V222H396.954V211.164H411.066V204.738H396.954V199.572H412.494ZM420.54 222.504C422.85 222.504 424.782 220.53 424.782 218.094C424.782 215.826 422.85 213.852 420.54 213.852C418.02 213.852 416.088 215.826 416.088 218.094C416.088 220.53 418.02 222.504 420.54 222.504ZM443.84 222.504C452.282 222.504 459.38 215.658 459.38 207.552C459.38 199.446 452.282 192.642 443.84 192.642C435.44 192.642 428.342 199.446 428.342 207.552C428.342 215.658 435.44 222.504 443.84 222.504ZM443.84 215.994C439.43 215.994 435.692 212.13 435.692 207.552C435.692 203.016 439.43 199.152 443.84 199.152C448.25 199.152 451.988 203.016 451.988 207.552C451.988 212.13 448.25 215.994 443.84 215.994ZM488.8 222L481.828 212.088C485.566 210.576 487.96 207.258 487.96 203.058C487.96 197.22 483.34 193.146 476.998 193.146H463.6V222H470.782V212.97H474.31L480.652 222H488.8ZM470.782 199.698H476.326C478.804 199.698 480.568 201.042 480.568 203.058C480.568 205.074 478.804 206.418 476.326 206.418H470.782V199.698ZM505.746 210.87H511.92V214.482C510.492 215.448 508.77 215.994 507.09 215.994C502.596 215.994 498.774 212.13 498.774 207.552C498.774 203.016 502.596 199.152 507.09 199.152C509.568 199.152 512.088 200.328 513.642 202.26L518.892 197.598C515.952 194.49 511.542 192.642 507.09 192.642C498.564 192.642 491.424 199.446 491.424 207.552C491.424 215.658 498.564 222.504 507.09 222.504C511.542 222.504 515.952 220.656 518.892 217.506V205.452H505.746V210.87Z" fill="white"/>
</g>
<defs>
<clipPath id="clip0_1_6">
<rect width="1125.5" height="228.605" fill="white" transform="translate(0.5 0.30603)"/>
</clipPath>
</defs>
</svg>
