<svg width="334" height="376" viewBox="0 0 334 376" fill="none" xmlns="http://www.w3.org/2000/svg">
<g clip-path="url(#clip0_5719_2874)">
<path fill-rule="evenodd" clip-rule="evenodd" d="M189.61 52.3893L283.299 211.402C296.033 174.433 300.096 133.873 300.119 95.0832C262.453 84.3597 224.552 70.6567 189.61 52.3893ZM144.549 52.9447C109.565 71.9979 72.7634 86.1117 33.7224 95.697C32.4359 136.368 36.4001 178.284 50.4229 216.591L144.549 52.9447Z" fill="#F9F9F9" stroke="#F9F9F9" stroke-width="0.525968"/>
<path fill-rule="evenodd" clip-rule="evenodd" d="M167.13 44.9035L48.6444 250.911C25.3403 206.792 14.9014 151.294 18.6873 83.2129C68.1694 72.3228 117.651 53.5315 167.13 21.358C207.716 47.5381 257.967 67.6748 315.575 83.2129C316.944 154.51 305.474 206.546 285.628 246.02L167.13 44.9035ZM95.6092 246.316C99.1921 246.316 102.095 249.219 102.095 252.802C102.095 256.382 99.1921 259.286 95.6092 259.286C92.0289 259.286 89.1256 256.382 89.1256 252.802C89.1256 249.219 92.0289 246.316 95.6092 246.316ZM244.522 261.783C248.102 261.783 251.005 264.685 251.005 268.266C251.005 271.848 248.102 274.751 244.522 274.751C240.939 274.751 238.036 271.848 238.036 268.266C238.036 264.685 240.939 261.783 244.522 261.783ZM215.12 205.217C218.703 205.217 221.606 208.119 221.606 211.703C221.606 215.283 218.703 218.186 215.12 218.186C211.54 218.186 208.637 215.283 208.637 211.703C208.637 208.119 211.54 205.217 215.12 205.217ZM176.711 146.549C180.291 146.549 183.195 149.452 183.195 153.035C183.195 156.617 180.291 159.521 176.711 159.521C173.128 159.521 170.226 156.617 170.226 153.035C170.226 149.452 173.128 146.549 176.711 146.549ZM128.564 190.453C132.144 190.453 135.047 193.356 135.047 196.936C135.047 200.516 132.144 203.419 128.564 203.419C124.981 203.419 122.078 200.516 122.078 196.936C122.078 193.356 124.981 190.453 128.564 190.453ZM171.323 315.854V353.208C210.149 333.048 245.897 308.277 272.111 269.205L167.13 88.7982L61.1077 271.65C85.6673 307.781 120.33 334.972 164.139 354.072V315.854H158.105H150.971H150.922V288.32H132.155H124.972V281.136V256.394H107.761C106.212 261.64 101.359 265.471 95.6092 265.471C88.6106 265.471 82.9402 259.798 82.9402 252.802C82.9402 245.804 88.6106 240.134 95.6092 240.134C101.359 240.134 106.212 243.962 107.761 249.211H124.972V209.088C119.723 207.539 115.894 202.686 115.894 196.936C115.894 189.938 121.566 184.267 128.564 184.267C135.562 184.267 141.233 189.938 141.233 196.936C141.233 202.686 137.404 207.539 132.155 209.088V281.136H150.922H158.105V288.32V308.67H177.508V294.704V287.52V268.767H157.956H150.773V261.584V218.784V211.601H157.956H173.117V165.187C167.871 163.638 164.042 158.785 164.042 153.035C164.042 146.039 169.713 140.366 176.711 140.366C183.707 140.366 189.38 146.039 189.38 153.035C189.38 158.785 185.549 163.638 180.301 165.187V211.601V218.784V219.086H173.117V218.784H157.956V261.584H177.508V249.91V242.727H184.692H211.528V223.854C206.28 222.306 202.451 217.452 202.451 211.703C202.451 204.704 208.122 199.031 215.12 199.031C222.119 199.031 227.789 204.704 227.789 211.703C227.789 217.452 223.961 222.306 218.712 223.854V242.727V249.86V249.91H184.692V261.584V268.767V287.52H202.848V271.859V264.674H210.031H232.37C233.916 259.427 238.771 255.597 244.522 255.597C251.517 255.597 257.191 261.27 257.191 268.266C257.191 275.264 251.517 280.937 244.522 280.937C238.771 280.937 233.918 277.107 232.37 271.859H210.031V287.52V294.704H202.848H184.692V308.67V315.854H177.508H171.323ZM14.8341 65.7013C66.1802 54.403 113.242 35.0111 157.361 6.32794L167.095 0L176.849 6.29373C219.983 34.1175 270.905 52.5947 320.244 65.9028L333.243 69.4062L333.5 82.8679C334.599 140.16 328.071 200.639 302.374 252.624C282.716 292.401 254.265 322.454 217.551 346.932C203.993 355.971 189.776 363.965 175.253 371.345L167.819 375.123L160.139 371.869C123.638 356.407 90.6314 334.69 64.2572 304.877C9.76797 243.282 -3.64581 161.936 0.785474 82.2152L1.54183 68.6278L14.8341 65.7013Z" fill="#D2990B"/>
</g>
<defs>
<clipPath id="clip0_5719_2874">
<rect width="333.615" height="375.123" fill="white"/>
</clipPath>
</defs>
</svg>
