<svg width="442" height="498" viewBox="0 0 442 498" fill="none" xmlns="http://www.w3.org/2000/svg">
<g clip-path="url(#clip0_382_25)">
<path fill-rule="evenodd" clip-rule="evenodd" d="M251.377 70.0446L375.394 280.534C392.252 231.597 397.63 177.907 397.66 126.56C347.8 112.365 297.63 94.2256 251.377 70.0446ZM191.728 70.7798C145.419 96.001 96.7035 114.684 45.0238 127.372C43.3208 181.209 48.5683 236.695 67.1308 287.403L191.728 70.7798Z" fill="black" stroke="#F9F9F9" stroke-width="0.696238"/>
<path fill-rule="evenodd" clip-rule="evenodd" d="M221.62 60.1354L64.7766 332.832C33.9284 274.431 20.1102 200.968 25.1217 110.847C90.6224 96.431 156.122 71.5565 221.62 28.9676C275.343 63.6229 341.863 90.2783 418.12 110.847C419.932 205.224 404.748 274.106 378.479 326.359L221.62 60.1354ZM126.945 326.751C131.688 326.751 135.53 330.593 135.53 335.336C135.53 340.075 131.688 343.919 126.945 343.919C122.206 343.919 118.363 340.075 118.363 335.336C118.363 330.593 122.206 326.751 126.945 326.751ZM324.065 347.224C328.803 347.224 332.647 351.066 332.647 355.806C332.647 360.548 328.803 364.391 324.065 364.391C319.322 364.391 315.48 360.548 315.48 355.806C315.48 351.066 319.322 347.224 324.065 347.224ZM285.145 272.346C289.887 272.346 293.73 276.189 293.73 280.932C293.73 285.671 289.887 289.514 285.145 289.514C280.406 289.514 276.563 285.671 276.563 280.932C276.563 276.189 280.406 272.346 285.145 272.346ZM234.302 194.686C239.041 194.686 242.885 198.529 242.885 203.272C242.885 208.014 239.041 211.858 234.302 211.858C229.56 211.858 225.717 208.014 225.717 203.272C225.717 198.529 229.56 194.686 234.302 194.686ZM170.568 252.803C175.307 252.803 179.15 256.646 179.15 261.384C179.15 266.124 175.307 269.967 170.568 269.967C165.825 269.967 161.983 266.124 161.983 261.384C161.983 256.646 165.825 252.803 170.568 252.803ZM227.169 418.8V468.246C278.565 441.56 325.885 408.77 360.585 357.049L221.62 118.24L81.2747 360.286C113.785 408.113 159.669 444.107 217.66 469.391V418.8H209.673H200.229H200.164V382.352H175.322H165.813V372.842V340.091H143.031C140.981 347.036 134.556 352.106 126.945 352.106C117.681 352.106 110.175 344.597 110.175 335.336C110.175 326.073 117.681 318.567 126.945 318.567C134.556 318.567 140.981 323.634 143.031 330.582H165.813V277.471C158.866 275.421 153.797 268.996 153.797 261.384C153.797 252.121 161.305 244.615 170.568 244.615C179.831 244.615 187.338 252.121 187.338 261.384C187.338 268.996 182.27 275.421 175.322 277.471V372.842H200.164H209.673V382.352V409.291H235.356V390.803V381.293V356.469H209.475H199.967V346.961V290.306V280.797H209.475H229.545V219.357C222.6 217.308 217.532 210.884 217.532 203.272C217.532 194.011 225.038 186.501 234.302 186.501C243.563 186.501 251.073 194.011 251.073 203.272C251.073 210.884 246.001 217.308 239.053 219.357V280.797V290.306V290.706H229.545V290.306H209.475V346.961H235.356V331.508V322H244.866H280.391V297.017C273.443 294.968 268.375 288.543 268.375 280.932C268.375 271.667 275.882 264.158 285.145 264.158C294.409 264.158 301.915 271.667 301.915 280.932C301.915 288.543 296.848 294.968 289.9 297.017V322V331.442V331.508H244.866V346.961V356.469V381.293H268.9V360.563V351.052H278.409H307.979C310.026 344.106 316.453 339.036 324.065 339.036C333.325 339.036 340.835 346.545 340.835 355.806C340.835 365.07 333.325 372.579 324.065 372.579C316.453 372.579 310.029 367.509 307.979 360.563H278.409V381.293V390.803H268.9H244.866V409.291V418.8H235.356H227.169ZM20.0211 87.6661C87.9892 72.7102 150.287 47.0406 208.687 9.07191L221.572 0.69548L234.485 9.02666C291.582 45.8577 358.989 70.3165 424.3 87.9327L441.507 92.5704L441.848 110.39C443.303 186.229 434.661 266.287 400.645 335.1C374.624 387.754 336.962 427.537 288.363 459.938C270.415 471.904 251.596 482.486 232.372 492.254L222.532 497.256L212.365 492.948C164.048 472.48 120.356 443.733 85.4438 404.269C13.3149 322.735 -4.44129 215.055 1.42452 109.526L2.42572 91.5399L20.0211 87.6661Z" fill="#D2990B"/>
</g>
<defs>
<clipPath id="clip0_382_25">
<rect width="441.615" height="496.561" fill="white" transform="translate(0.384766 0.69545)"/>
</clipPath>
</defs>
</svg>
